<?xml version="1.0" encoding="UTF-8" standalone="no"?>
<!DOCTYPE svg PUBLIC "-//W3C//DTD SVG 1.1//EN"
 "http://www.w3.org/Graphics/SVG/1.1/DTD/svg11.dtd">
<!-- Generated by graphviz version 2.50.0 (0)
 -->
<!-- Pages: 1 -->
<svg width="1376pt" height="305pt"
 viewBox="0.00 0.00 1375.94 305.00" xmlns="http://www.w3.org/2000/svg" xmlns:xlink="http://www.w3.org/1999/xlink">
<g id="graph0" class="graph" transform="scale(1 1) rotate(0) translate(4 301)">
<polygon fill="white" stroke="transparent" points="-4,4 -4,-301 1371.94,-301 1371.94,4 -4,4"/>
<!-- 0 -->
<g id="node1" class="node">
<title>0</title>
<ellipse fill="none" stroke="black" cx="632.39" cy="-279" rx="69.59" ry="18"/>
<text text-anchor="middle" x="632.39" y="-275.3" font-family="Times New Roman,serif" font-size="14.00">f20&lt;16.7950001</text>
</g>
<!-- 1 -->
<g id="node2" class="node">
<title>1</title>
<ellipse fill="none" stroke="black" cx="458.39" cy="-192" rx="74.19" ry="18"/>
<text text-anchor="middle" x="458.39" y="-188.3" font-family="Times New Roman,serif" font-size="14.00">f27&lt;0.142349988</text>
</g>
<!-- 0&#45;&gt;1 -->
<g id="edge1" class="edge">
<title>0&#45;&gt;1</title>
<path fill="none" stroke="#0000ff" d="M601.29,-262.8C572.76,-248.87 530.33,-228.14 499.12,-212.89"/>
<polygon fill="#0000ff" stroke="#0000ff" points="500.34,-209.6 489.82,-208.35 497.27,-215.89 500.34,-209.6"/>
<text text-anchor="middle" x="590.89" y="-231.8" font-family="Times New Roman,serif" font-size="14.00">yes, missing</text>
</g>
<!-- 2 -->
<g id="node3" class="node">
<title>2</title>
<ellipse fill="none" stroke="black" cx="840.39" cy="-192" rx="65.79" ry="18"/>
<text text-anchor="middle" x="840.39" y="-188.3" font-family="Times New Roman,serif" font-size="14.00">f1&lt;15.8199997</text>
</g>
<!-- 0&#45;&gt;2 -->
<g id="edge2" class="edge">
<title>0&#45;&gt;2</title>
<path fill="none" stroke="#ff0000" d="M668.15,-263.39C703.59,-248.9 757.97,-226.68 796.12,-211.09"/>
<polygon fill="#ff0000" stroke="#ff0000" points="797.52,-214.3 805.45,-207.28 794.87,-207.82 797.52,-214.3"/>
<text text-anchor="middle" x="756.39" y="-231.8" font-family="Times New Roman,serif" font-size="14.00">no</text>
</g>
<!-- 3 -->
<g id="node4" class="node">
<title>3</title>
<ellipse fill="none" stroke="black" cx="248.39" cy="-105" rx="74.19" ry="18"/>
<text text-anchor="middle" x="248.39" y="-101.3" font-family="Times New Roman,serif" font-size="14.00">f10&lt;0.625550032</text>
</g>
<!-- 1&#45;&gt;3 -->
<g id="edge3" class="edge">
<title>1&#45;&gt;3</title>
<path fill="none" stroke="#0000ff" d="M421.81,-176.19C386.39,-161.86 332.56,-140.07 294.28,-124.57"/>
<polygon fill="#0000ff" stroke="#0000ff" points="295.49,-121.29 284.91,-120.78 292.86,-127.77 295.49,-121.29"/>
<text text-anchor="middle" x="400.89" y="-144.8" font-family="Times New Roman,serif" font-size="14.00">yes, missing</text>
</g>
<!-- 4 -->
<g id="node5" class="node">
<title>4</title>
<ellipse fill="none" stroke="black" cx="458.39" cy="-105" rx="65.79" ry="18"/>
<text text-anchor="middle" x="458.39" y="-101.3" font-family="Times New Roman,serif" font-size="14.00">f1&lt;20.2999992</text>
</g>
<!-- 1&#45;&gt;4 -->
<g id="edge4" class="edge">
<title>1&#45;&gt;4</title>
<path fill="none" stroke="#ff0000" d="M458.39,-173.8C458.39,-162.16 458.39,-146.55 458.39,-133.24"/>
<polygon fill="#ff0000" stroke="#ff0000" points="461.89,-133.18 458.39,-123.18 454.89,-133.18 461.89,-133.18"/>
<text text-anchor="middle" x="465.39" y="-144.8" font-family="Times New Roman,serif" font-size="14.00">no</text>
</g>
<!-- 5 -->
<g id="node10" class="node">
<title>5</title>
<ellipse fill="none" stroke="black" cx="840.39" cy="-105" rx="69.59" ry="18"/>
<text text-anchor="middle" x="840.39" y="-101.3" font-family="Times New Roman,serif" font-size="14.00">f5&lt;0.113710001</text>
</g>
<!-- 2&#45;&gt;5 -->
<g id="edge9" class="edge">
<title>2&#45;&gt;5</title>
<path fill="none" stroke="#0000ff" d="M840.39,-173.8C840.39,-162.16 840.39,-146.55 840.39,-133.24"/>
<polygon fill="#0000ff" stroke="#0000ff" points="843.89,-133.18 840.39,-123.18 836.89,-133.18 843.89,-133.18"/>
<text text-anchor="middle" x="874.89" y="-144.8" font-family="Times New Roman,serif" font-size="14.00">yes, missing</text>
</g>
<!-- 6 -->
<g id="node11" class="node">
<title>6</title>
<ellipse fill="none" stroke="black" cx="1127.39" cy="-105" rx="74.19" ry="18"/>
<text text-anchor="middle" x="1127.39" y="-101.3" font-family="Times New Roman,serif" font-size="14.00">f26&lt;0.190699995</text>
</g>
<!-- 2&#45;&gt;6 -->
<g id="edge10" class="edge">
<title>2&#45;&gt;6</title>
<path fill="none" stroke="#ff0000" d="M883.36,-178.27C933.81,-163.33 1017.58,-138.52 1072.64,-122.22"/>
<polygon fill="#ff0000" stroke="#ff0000" points="1073.64,-125.57 1082.24,-119.37 1071.65,-118.86 1073.64,-125.57"/>
<text text-anchor="middle" x="1008.39" y="-144.8" font-family="Times New Roman,serif" font-size="14.00">no</text>
</g>
<!-- 7 -->
<g id="node6" class="node">
<title>7</title>
<ellipse fill="none" stroke="black" cx="75.39" cy="-18" rx="75.29" ry="18"/>
<text text-anchor="middle" x="75.39" y="-14.3" font-family="Times New Roman,serif" font-size="14.00">leaf=0.191044778</text>
</g>
<!-- 3&#45;&gt;7 -->
<g id="edge5" class="edge">
<title>3&#45;&gt;7</title>
<path fill="none" stroke="#0000ff" d="M216,-88.61C203.31,-82.54 188.65,-75.49 175.39,-69 155.65,-59.33 133.8,-48.43 115.58,-39.28"/>
<polygon fill="#0000ff" stroke="#0000ff" points="116.91,-36.04 106.41,-34.67 113.77,-42.29 116.91,-36.04"/>
<text text-anchor="middle" x="209.89" y="-57.8" font-family="Times New Roman,serif" font-size="14.00">yes, missing</text>
</g>
<!-- 8 -->
<g id="node7" class="node">
<title>8</title>
<ellipse fill="none" stroke="black" cx="248.39" cy="-18" rx="79.89" ry="18"/>
<text text-anchor="middle" x="248.39" y="-14.3" font-family="Times New Roman,serif" font-size="14.00">leaf=0.0222222228</text>
</g>
<!-- 3&#45;&gt;8 -->
<g id="edge6" class="edge">
<title>3&#45;&gt;8</title>
<path fill="none" stroke="#ff0000" d="M248.39,-86.8C248.39,-75.16 248.39,-59.55 248.39,-46.24"/>
<polygon fill="#ff0000" stroke="#ff0000" points="251.89,-46.18 248.39,-36.18 244.89,-46.18 251.89,-46.18"/>
<text text-anchor="middle" x="255.39" y="-57.8" font-family="Times New Roman,serif" font-size="14.00">no</text>
</g>
<!-- 9 -->
<g id="node8" class="node">
<title>9</title>
<ellipse fill="none" stroke="black" cx="426.39" cy="-18" rx="79.89" ry="18"/>
<text text-anchor="middle" x="426.39" y="-14.3" font-family="Times New Roman,serif" font-size="14.00">leaf=0.0400000028</text>
</g>
<!-- 4&#45;&gt;9 -->
<g id="edge7" class="edge">
<title>4&#45;&gt;9</title>
<path fill="none" stroke="#0000ff" d="M451.92,-86.8C447.49,-75.05 441.54,-59.24 436.5,-45.84"/>
<polygon fill="#0000ff" stroke="#0000ff" points="439.66,-44.3 432.86,-36.18 433.11,-46.77 439.66,-44.3"/>
<text text-anchor="middle" x="478.89" y="-57.8" font-family="Times New Roman,serif" font-size="14.00">yes, missing</text>
</g>
<!-- 10 -->
<g id="node9" class="node">
<title>10</title>
<ellipse fill="none" stroke="black" cx="603.39" cy="-18" rx="78.79" ry="18"/>
<text text-anchor="middle" x="603.39" y="-14.3" font-family="Times New Roman,serif" font-size="14.00">leaf=&#45;0.160000011</text>
</g>
<!-- 4&#45;&gt;10 -->
<g id="edge8" class="edge">
<title>4&#45;&gt;10</title>
<path fill="none" stroke="#ff0000" d="M484.99,-88.41C508.1,-74.86 541.78,-55.12 567.32,-40.15"/>
<polygon fill="#ff0000" stroke="#ff0000" points="569.12,-43.15 575.98,-35.07 565.58,-37.11 569.12,-43.15"/>
<text text-anchor="middle" x="547.39" y="-57.8" font-family="Times New Roman,serif" font-size="14.00">no</text>
</g>
<!-- 11 -->
<g id="node12" class="node">
<title>11</title>
<ellipse fill="none" stroke="black" cx="775.39" cy="-18" rx="75.29" ry="18"/>
<text text-anchor="middle" x="775.39" y="-14.3" font-family="Times New Roman,serif" font-size="14.00">leaf=0.111111119</text>
</g>
<!-- 5&#45;&gt;11 -->
<g id="edge11" class="edge">
<title>5&#45;&gt;11</title>
<path fill="none" stroke="#0000ff" d="M827.55,-87.21C818.11,-74.87 805.14,-57.89 794.49,-43.97"/>
<polygon fill="#0000ff" stroke="#0000ff" points="797.06,-41.58 788.21,-35.76 791.5,-45.83 797.06,-41.58"/>
<text text-anchor="middle" x="846.89" y="-57.8" font-family="Times New Roman,serif" font-size="14.00">yes, missing</text>
</g>
<!-- 12 -->
<g id="node13" class="node">
<title>12</title>
<ellipse fill="none" stroke="black" cx="947.39" cy="-18" rx="78.79" ry="18"/>
<text text-anchor="middle" x="947.39" y="-14.3" font-family="Times New Roman,serif" font-size="14.00">leaf=&#45;0.111111119</text>
</g>
<!-- 5&#45;&gt;12 -->
<g id="edge12" class="edge">
<title>5&#45;&gt;12</title>
<path fill="none" stroke="#ff0000" d="M861.52,-87.69C869.07,-81.83 877.63,-75.14 885.39,-69 896.43,-60.26 908.49,-50.57 919.02,-42.06"/>
<polygon fill="#ff0000" stroke="#ff0000" points="921.51,-44.54 927.08,-35.53 917.11,-39.1 921.51,-44.54"/>
<text text-anchor="middle" x="910.39" y="-57.8" font-family="Times New Roman,serif" font-size="14.00">no</text>
</g>
<!-- 13 -->
<g id="node14" class="node">
<title>13</title>
<ellipse fill="none" stroke="black" cx="1127.39" cy="-18" rx="83.39" ry="18"/>
<text text-anchor="middle" x="1127.39" y="-14.3" font-family="Times New Roman,serif" font-size="14.00">leaf=&#45;0.0222222228</text>
</g>
<!-- 6&#45;&gt;13 -->
<g id="edge13" class="edge">
<title>6&#45;&gt;13</title>
<path fill="none" stroke="#0000ff" d="M1127.39,-86.8C1127.39,-75.16 1127.39,-59.55 1127.39,-46.24"/>
<polygon fill="#0000ff" stroke="#0000ff" points="1130.89,-46.18 1127.39,-36.18 1123.89,-46.18 1130.89,-46.18"/>
<text text-anchor="middle" x="1161.89" y="-57.8" font-family="Times New Roman,serif" font-size="14.00">yes, missing</text>
</g>
<!-- 14 -->
<g id="node15" class="node">
<title>14</title>
<ellipse fill="none" stroke="black" cx="1298.39" cy="-18" rx="69.59" ry="18"/>
<text text-anchor="middle" x="1298.39" y="-14.3" font-family="Times New Roman,serif" font-size="14.00">leaf=&#45;0.1944056</text>
</g>
<!-- 6&#45;&gt;14 -->
<g id="edge14" class="edge">
<title>6&#45;&gt;14</title>
<path fill="none" stroke="#ff0000" d="M1159.82,-88.66C1172.51,-82.61 1187.17,-75.54 1200.39,-69 1219.93,-59.34 1241.52,-48.35 1259.45,-39.15"/>
<polygon fill="#ff0000" stroke="#ff0000" points="1261.17,-42.2 1268.47,-34.51 1257.97,-35.97 1261.17,-42.2"/>
<text text-anchor="middle" x="1236.39" y="-57.8" font-family="Times New Roman,serif" font-size="14.00">no</text>
</g>
</g>
</svg>
